<?xml version="1.0" encoding="utf-8"?>
<!-- Generator: Adobe Illustrator 22.1.0, SVG Export Plug-In . SVG Version: 6.00 Build 0)  -->
<svg version="1.1" xmlns="http://www.w3.org/2000/svg" xmlns:xlink="http://www.w3.org/1999/xlink" x="0px" y="0px"
	 viewBox="0 0 240 211" style="enable-background:new 0 0 240 211;" xml:space="preserve">
<style type="text/css">
	.st0{fill:#E6E6E6;}
	.st1{fill:none;stroke:#999999;stroke-miterlimit:10;}
	.st2{fill:#999999;}
	.st3{fill:#333333;}
	.st4{fill:#F2F2F2;}
	.st5{fill:#B3B3B3;stroke:#FFFFFF;stroke-miterlimit:10;}
	.st6{fill:#4D4D4D;}
	.st7{fill:#FFFFFF;}
	.st8{fill:#1A1A1A;}
	.st9{fill:none;stroke:#FFFFFF;stroke-width:3;stroke-linecap:round;stroke-miterlimit:10;}
	.st10{fill:none;stroke:#FFFFFF;stroke-miterlimit:10;}
	.st11{fill:#B3B3B3;}
	.st12{fill:#B3B3B3;stroke:#999999;stroke-miterlimit:10;}
	.st13{fill:#808080;}
	.st14{fill:none;stroke:#000000;stroke-miterlimit:10;}
	.st15{fill:#666666;}
	.st16{display:none;}
	.st17{display:inline;opacity:0.3;fill:#D01200;}
</style>
<g id="Repères">
</g>
<g id="Calque_2">
	<g>
		<g>
			<g>
				<path class="st7" d="M224.8,85.6L125.6,13c-1.9-1.4-4.5-1.4-6.4,0L20.1,85.6c-2.4,1.8-2.9,5.2-1.2,7.6c1.8,2.4,5.2,2.9,7.6,1.2
					l95.9-70.2l95.9,70.2c1,0.7,2.1,1,3.2,1c1.7,0,3.3-0.8,4.4-2.2C227.7,90.8,227.2,87.4,224.8,85.6z"/>
			</g>
		</g>
		<g>
			<g>
				<path class="st7" d="M198.5,95.6c-3,0-5.4,2.4-5.4,5.4v86.5h-43.5v-47.2c0-15-12.2-27.2-27.2-27.2s-27.2,12.2-27.2,27.2v47.2
					H51.8v-86.5c0-3-2.4-5.4-5.4-5.4s-5.4,2.4-5.4,5.4V193c0,3,2.4,5.4,5.4,5.4h54.3c2.9,0,5.2-2.2,5.4-5c0-0.1,0-0.3,0-0.4v-52.7
					c0-9,7.3-16.3,16.3-16.3s16.3,7.3,16.3,16.3V193c0,0.2,0,0.3,0,0.4c0.2,2.8,2.6,5,5.4,5h54.3c3,0,5.4-2.4,5.4-5.4v-91.9
					C203.9,98.1,201.5,95.6,198.5,95.6z"/>
			</g>
		</g>
	</g>
</g>
<g id="grille" class="st16">
</g>
</svg>
