<?xml version="1.0" encoding="utf-8"?>
<!-- Generator: Adobe Illustrator 21.1.0, SVG Export Plug-In . SVG Version: 6.00 Build 0)  -->
<svg version="1.1" id="Calque_1" xmlns="http://www.w3.org/2000/svg" xmlns:xlink="http://www.w3.org/1999/xlink" x="0px" y="0px"
	 viewBox="0 0 100 92" style="enable-background:new 0 0 100 92;" xml:space="preserve">
<style type="text/css">
	.st0{fill:#FFFFFF;}
</style>
<circle class="st0" cx="33.1" cy="49.9" r="3"/>
<circle class="st0" cx="51.9" cy="33" r="4.2"/>
<circle class="st0" cx="71.4" cy="45" r="1.9"/>
<g>
	<path class="st0" d="M29.7,76.6l-3,9.3v0c-0.1,0.1-0.1,0.3-0.2,0.3c-0.1,0.1-0.2,0.1-0.4,0.1c-0.1,0-0.1,0-0.2,0
		c-0.1,0-0.1,0-0.2,0h0c-0.5-0.2-0.7-0.5-0.6-0.9l3.2-9.6c0-0.1,0.1-0.3,0.2-0.4c0.1-0.1,0.3-0.2,0.4-0.2c0.2,0,0.3,0,0.5-0.1
		c0.1,0,0.3,0,0.3,0c0.1,0,0.2,0,0.3,0c0.1,0,0.3,0,0.5,0c0.1,0,0.3,0.1,0.4,0.2c0.1,0.1,0.2,0.2,0.3,0.4c0.5,1.6,1,3.2,1.6,4.8
		c0.5,1.6,1.1,3.2,1.6,4.8c0.1,0.4-0.1,0.7-0.6,0.9c-0.1,0-0.1,0-0.2,0c-0.1,0-0.1,0-0.2,0c-0.1,0-0.2,0-0.4-0.1
		c-0.1-0.1-0.2-0.2-0.2-0.3v0L29.7,76.6z M30.8,82.9c0,0.3-0.1,0.5-0.3,0.8C30.3,83.9,30,84,29.7,84c-0.3,0-0.5-0.1-0.7-0.3
		c-0.2-0.2-0.3-0.5-0.3-0.8c0-0.3,0.1-0.5,0.3-0.8c0.2-0.2,0.5-0.3,0.7-0.3c0.3,0,0.5,0.1,0.8,0.3C30.7,82.4,30.8,82.6,30.8,82.9z"
		/>
	<path class="st0" d="M35.4,76.6c-0.3,0-0.5-0.2-0.5-0.7c0-0.5,0.2-0.7,0.5-0.7h6.1c0.3,0,0.5,0,0.7,0.1c0.2,0.1,0.3,0.2,0.3,0.4
		c0,0.2,0,0.3,0,0.5c0,0.1,0,0.3-0.1,0.3l-5.5,8.3h5c0.3,0,0.5,0.2,0.5,0.7c0,0.5-0.2,0.7-0.5,0.7h-6.2c-0.6,0-0.9-0.2-1-0.6
		c0-0.2,0-0.3,0-0.4c0-0.1,0.1-0.2,0.1-0.3c0.2-0.3,0.3-0.5,0.5-0.8c0.2-0.3,0.4-0.6,0.6-0.9c0.2-0.3,0.5-0.7,0.7-1.1
		c0.3-0.4,0.6-0.9,0.9-1.4c0.4-0.5,0.7-1.1,1.2-1.8c0.4-0.7,0.9-1.4,1.5-2.3H35.4z"/>
	<path class="st0" d="M47.6,85.7c0,0.4-0.3,0.7-0.8,0.7c-0.5,0-0.8-0.2-0.8-0.7v-9.1h-2.4c-0.3,0-0.5-0.2-0.5-0.7
		c0-0.5,0.2-0.7,0.5-0.7h6.5c0.4,0,0.5,0.2,0.5,0.7c0,0.5-0.2,0.7-0.5,0.7h-2.4V85.7z"/>
	<path class="st0" d="M55.7,81.7h-1.1c-0.2,0-0.3-0.1-0.4-0.2c-0.1-0.1-0.1-0.3-0.1-0.5c0-0.5,0.2-0.7,0.6-0.7h1.6
		c0.3,0,0.6-0.1,0.7-0.3c0.1-0.2,0.2-0.4,0.2-0.6v-1.8c0-0.2-0.1-0.4-0.2-0.6c-0.1-0.2-0.4-0.3-0.7-0.3h-2.9v9
		c0,0.4-0.3,0.7-0.8,0.7c-0.5,0-0.8-0.2-0.8-0.7v-9.6c0-0.3,0.1-0.6,0.3-0.7c0.2-0.1,0.4-0.2,0.6-0.2h4c0.2,0,0.5,0.1,0.7,0.2
		c0.3,0.1,0.5,0.2,0.7,0.4h0c0.2,0.2,0.4,0.4,0.6,0.7c0.1,0.3,0.2,0.6,0.2,1v2c0,0.7-0.2,1.3-0.7,1.7c-0.1,0.1-0.2,0.1-0.3,0.2
		c-0.1,0.1-0.2,0.1-0.4,0.2l2.2,3.7c0,0,0.1,0.1,0.1,0.2c0,0.1,0,0.1,0,0.2c0,0.2-0.2,0.4-0.5,0.6v0c-0.2,0.1-0.4,0.2-0.5,0.2
		c-0.2,0-0.4-0.1-0.5-0.3l0,0L55.7,81.7z"/>
	<path class="st0" d="M62,86.2c-0.3,0-0.6-0.1-0.7-0.3c-0.1-0.2-0.2-0.4-0.2-0.6v-9.3c0-0.2,0.1-0.4,0.2-0.6
		c0.1-0.2,0.4-0.3,0.7-0.3h4.8c0.3,0,0.5,0.2,0.5,0.7c0,0.5-0.2,0.7-0.5,0.7h-4.1v8.2h4.3c0.3,0,0.5,0.2,0.5,0.7
		c0,0.5-0.2,0.7-0.5,0.7H62z M66.3,80.5c0,0.3-0.1,0.6-0.3,0.8c-0.2,0.2-0.5,0.3-0.8,0.3c-0.3,0-0.6-0.1-0.8-0.3
		c-0.2-0.2-0.3-0.5-0.3-0.8c0-0.3,0.1-0.6,0.3-0.8c0.2-0.2,0.5-0.3,0.8-0.3c0.3,0,0.6,0.1,0.8,0.3C66.2,79.9,66.3,80.2,66.3,80.5z"
		/>
	<path class="st0" d="M75,75.4c0.1-0.2,0.3-0.2,0.5-0.2c0.2,0,0.4,0.1,0.6,0.3c0.1,0.1,0.2,0.2,0.3,0.3c0.1,0.1,0.1,0.2,0.1,0.3
		c0,0.2-0.1,0.3-0.2,0.4l-1.9,2.2l-3.6,4.3v2.8c0,0.4-0.3,0.7-0.8,0.7c-0.5,0-0.8-0.2-0.8-0.7v-9.8c0-0.4,0.3-0.7,0.8-0.7
		c0.6,0,0.8,0.2,0.8,0.7v4.5L75,75.4z M73,82c-0.1-0.1-0.1-0.3-0.1-0.5c0-0.3,0.1-0.5,0.3-0.7h0c0.2-0.1,0.4-0.2,0.6-0.2
		c0.2,0,0.3,0.1,0.4,0.3l2.7,3.9l0,0c0.1,0.1,0.1,0.3,0.1,0.4c0,0.2-0.1,0.5-0.4,0.6h0c-0.1,0.1-0.2,0.1-0.3,0.2
		c-0.1,0-0.2,0.1-0.2,0.1c-0.1,0-0.2,0-0.2-0.1c-0.1-0.1-0.2-0.1-0.2-0.2L73,82z"/>
</g>
<path class="st0" d="M89.5,41c0-22.2-18.7-40-41.2-38.4C28.8,3.9,13.3,20,12.5,39.5c-0.4,11.3,4,21.6,11.5,28.9
	c0.3,0.3,0.8,0.6,1.3,0.7c6.9,1.5,16.4,0.8,26-6.1c5.8-4.1-11-7.3-11-7.3l-3-4.2l-3.3,4.8l-4-3L22.4,60c-3.5-5.4-5.6-11.9-5.6-18.8
	C16.9,22.3,32.6,6.8,51.5,7.1c18.7,0.3,33.7,15.5,33.7,34.2c0,6.9-2.1,13.3-5.6,18.7l-5.7-14l-2.4,3.7l-2-2.3l-2.5,5l-9-17.2l-6,7.9
	l-4.3-4.7l-6,13.7c0.1,0.8,3.7,0.8,3.7,0.8c12.6,0.6,30.5,9.1,15.3,13.5c-4.9,1.3,6.3,4.2,15.8,2.9c0.5-0.1,1-0.3,1.4-0.7
	C85.1,61.5,89.5,51.8,89.5,41z"/>
</svg>
