<?xml version="1.0" encoding="utf-8"?>
<!-- Generator: Adobe Illustrator 22.1.0, SVG Export Plug-In . SVG Version: 6.00 Build 0)  -->
<svg version="1.1" id="Capa_1" xmlns="http://www.w3.org/2000/svg" xmlns:xlink="http://www.w3.org/1999/xlink" x="0px" y="0px"
	 viewBox="0 0 376 272" style="enable-background:new 0 0 376 272;" xml:space="preserve">
<style type="text/css">
	.st0{fill:none;}
	.st1{fill:#FFFFFF;}
</style>
<path class="st0" d="M361.7,29.4c0-8.6-7-15.5-15.5-15.5H30.3c-8.6,0-15.5,7-15.5,15.5v5.1v10.8v196.5c0,8.6,7,15.5,15.5,15.5h315.9
	c8.6,0,15.5-7,15.5-15.5V45.2V34.5L361.7,29.4L361.7,29.4z M355.8,238.7L355.8,238.7c0,3.9-4.7,5.9-7.5,3.2L242.1,141l-45.8,43.8
	c-4.5,4.3-11.6,4.3-16.1,0L134.4,141L28.2,241.9c-2.8,2.7-7.5,0.7-7.5-3.2l0,0L129,135.8L20.8,32.4c0-3.9,4.7-5.9,7.5-3.2
	l153.3,146.5c3.8,3.6,9.7,3.6,13.4,0L348.2,29.2c2.8-2.7,7.5-0.7,7.5,3.2L247.5,135.8L355.8,238.7z"/>
<path class="st1" d="M348.2,29.2L202.5,168.4c-8,7.6-20.6,7.6-28.6,0L28.3,29.2c-2.8-2.7-7.5-0.7-7.5,3.2L129,135.8L20.8,238.7l0,0
	c0,3.9,4.7,5.9,7.5,3.2L134.4,141l34.2,32.7c11,10.5,28.3,10.5,39.2,0L242,141l106.2,100.9c2.8,2.7,7.5,0.7,7.5-3.2l0,0L247.5,135.8
	L355.8,32.4C355.8,28.5,351.1,26.5,348.2,29.2z"/>
<path class="st1" d="M348.5,6.1H28c-11.6,0-21,9.4-21,21v5.5v5.3V244c0,11.6,9.4,21,21,21h320.5c11.6,0,21-9.4,21-21V37.8v-5.3V27
	C369.5,15.5,360.1,6.1,348.5,6.1z M361.7,241.7c0,8.6-7,15.5-15.5,15.5H30.3c-8.6,0-15.5-7-15.5-15.5V45.2V34.5v-5.1
	c0-8.6,7-15.5,15.5-15.5h315.9c8.6,0,15.5,7,15.5,15.5v5.1v10.8L361.7,241.7L361.7,241.7z"/>
</svg>
