<?xml version="1.0" encoding="utf-8"?>
<!-- Generator: Adobe Illustrator 22.1.0, SVG Export Plug-In . SVG Version: 6.00 Build 0)  -->
<svg version="1.1" id="Calque_1" xmlns="http://www.w3.org/2000/svg" xmlns:xlink="http://www.w3.org/1999/xlink" x="0px" y="0px"
	 viewBox="0 0 214.5 162.5" style="enable-background:new 0 0 214.5 162.5;" xml:space="preserve">
<g>
	<path d="M7.5,154.5v-17c0-1.1,0.9-2,2-2h194c1.1,0,2,0.9,2,2v17H7.5z"/>
	<path d="M203.5,136.5c0.6,0,1,0.4,1,1v16H8.5v-16c0-0.6,0.4-1,1-1H203.5 M203.5,134.5H9.5c-1.7,0-3,1.3-3,3v18h200v-18
		C206.5,135.8,205.2,134.5,203.5,134.5L203.5,134.5z"/>
</g>
<g>
	<path d="M22.5,128.5v-17c0-1.1,0.9-2,2-2h164c1.1,0,2,0.9,2,2v17H22.5z"/>
	<path d="M188.5,110.5c0.6,0,1,0.4,1,1v16h-166v-16c0-0.6,0.4-1,1-1H188.5 M188.5,108.5h-164c-1.7,0-3,1.3-3,3v18h170v-18
		C191.5,109.8,190.2,108.5,188.5,108.5L188.5,108.5z"/>
</g>
<g>
	<path d="M37.5,102.5v-17c0-1.1,0.9-2,2-2h134c1.1,0,2,0.9,2,2v17H37.5z"/>
	<path d="M173.5,84.5c0.6,0,1,0.4,1,1v16h-136v-16c0-0.6,0.4-1,1-1H173.5 M173.5,82.5h-134c-1.7,0-3,1.3-3,3v18h140v-18
		C176.5,83.8,175.2,82.5,173.5,82.5L173.5,82.5z"/>
</g>
<g>
	<path d="M52.5,76.5v-17c0-1.1,0.9-2,2-2h104c1.1,0,2,0.9,2,2v17H52.5z"/>
	<path d="M158.5,58.5c0.6,0,1,0.4,1,1v16h-106v-16c0-0.6,0.4-1,1-1H158.5 M158.5,56.5h-104c-1.7,0-3,1.3-3,3v18h110v-18
		C161.5,57.8,160.2,56.5,158.5,56.5L158.5,56.5z"/>
</g>
<g>
	<path d="M115,11.5c0.3,0,0.6,0.2,0.8,0.4l26.8,37.6H70.4l26.8-37.6c0.2-0.3,0.5-0.4,0.8-0.4H115 M115,9.5H98c-1,0-1.9,0.5-2.4,1.3
		L66.5,51.5h80l-29.1-40.7C116.8,10,115.9,9.5,115,9.5L115,9.5z"/>
</g>
</svg>
