<?xml version="1.0" encoding="utf-8"?>
<!-- Generator: Adobe Illustrator 22.1.0, SVG Export Plug-In . SVG Version: 6.00 Build 0)  -->
<svg version="1.1" id="Calque_1" xmlns="http://www.w3.org/2000/svg" xmlns:xlink="http://www.w3.org/1999/xlink" x="0px" y="0px"
	 viewBox="0 0 214.5 162.5" style="enable-background:new 0 0 214.5 162.5;" xml:space="preserve">
<g>
	<path d="M7,155v-17.5c0-1.4,1.1-2.5,2.5-2.5h194c1.4,0,2.5,1.1,2.5,2.5V155H7z"/>
	<path d="M203.5,135.5c1.1,0,2,0.9,2,2v17H7.5v-17c0-1.1,0.9-2,2-2H203.5 M203.5,134.5H9.5c-1.7,0-3,1.3-3,3v18h200v-18
		C206.5,135.8,205.2,134.5,203.5,134.5L203.5,134.5z"/>
</g>
<g>
	<path d="M22,129v-17.5c0-1.4,1.1-2.5,2.5-2.5h164c1.4,0,2.5,1.1,2.5,2.5V129H22z"/>
	<path d="M188.5,109.5c1.1,0,2,0.9,2,2v17h-168v-17c0-1.1,0.9-2,2-2H188.5 M188.5,108.5h-164c-1.7,0-3,1.3-3,3v18h170v-18
		C191.5,109.8,190.2,108.5,188.5,108.5L188.5,108.5z"/>
</g>
<g>
	<path d="M37,103V85.5c0-1.4,1.1-2.5,2.5-2.5h134c1.4,0,2.5,1.1,2.5,2.5V103H37z"/>
	<path d="M173.5,83.5c1.1,0,2,0.9,2,2v17h-138v-17c0-1.1,0.9-2,2-2H173.5 M173.5,82.5h-134c-1.7,0-3,1.3-3,3v18h140v-18
		C176.5,83.8,175.2,82.5,173.5,82.5L173.5,82.5z"/>
</g>
<g>
	<path d="M52,77V59.5c0-1.4,1.1-2.5,2.5-2.5h104c1.4,0,2.5,1.1,2.5,2.5V77H52z"/>
	<path d="M158.5,57.5c1.1,0,2,0.9,2,2v17h-108v-17c0-1.1,0.9-2,2-2H158.5 M158.5,56.5h-104c-1.7,0-3,1.3-3,3v18h110v-18
		C161.5,57.8,160.2,56.5,158.5,56.5L158.5,56.5z"/>
</g>
<g>
	<path d="M67.5,51L96,11c0.5-0.7,1.2-1,2-1H115c0.8,0,1.6,0.4,2,1l28.5,40H67.5z"/>
	<path d="M115,10.5c0.6,0,1.3,0.3,1.6,0.8l28,39.2H68.4l28-39.2c0.4-0.5,1-0.8,1.6-0.8H115 M115,9.5H98c-1,0-1.9,0.5-2.4,1.3
		L66.5,51.5h80l-29.1-40.7C116.8,10,115.9,9.5,115,9.5L115,9.5z"/>
</g>
</svg>
