<?xml version="1.0" encoding="utf-8"?>
<!-- Generator: Adobe Illustrator 22.1.0, SVG Export Plug-In . SVG Version: 6.00 Build 0)  -->
<svg version="1.1" id="Calque_1" xmlns="http://www.w3.org/2000/svg" xmlns:xlink="http://www.w3.org/1999/xlink" x="0px" y="0px"
	 viewBox="0 0 512 512" style="enable-background:new 0 0 512 512;" xml:space="preserve">
<path d="M458.4,64.3C400.6,15.7,311.3,23,256,79.3C200.7,23,111.4,15.6,53.6,64.3C-21.6,127.6-10.6,230.8,43,285.5l175.4,178.7
	c10,10.2,23.4,15.9,37.6,15.9c14.3,0,27.6-5.6,37.6-15.8L469,285.6C522.5,230.9,533.7,127.7,458.4,64.3z M446.7,256L264,446.3
	c-2.4,2.4-14.3,2.1-16.7-0.3L67.2,261.8C30.7,224.6,17,140,78.1,89.1c38.9-32.7,117.7-24.7,155.3,13.6l22.6,24l28.7-25.3
	c37.8-38.5,114.9-43.7,153.6-11.1C489.4,133.4,482.9,219.1,446.7,256L446.7,256z"/>
</svg>
