<?xml version="1.0" encoding="utf-8"?>
<!-- Generator: Adobe Illustrator 22.1.0, SVG Export Plug-In . SVG Version: 6.00 Build 0)  -->
<svg version="1.1" id="Capa_1" xmlns="http://www.w3.org/2000/svg" xmlns:xlink="http://www.w3.org/1999/xlink" x="0px" y="0px"
	 viewBox="0 0 438.6 438.6" style="enable-background:new 0 0 438.6 438.6;" xml:space="preserve">
<style type="text/css">
	.st0{fill:#FFFFFF;}
</style>
<g>
	<path class="st0" d="M414.4,24.1C398.3,8,379,0,356.3,0v0H82.2c-22.6,0-42,8-58.1,24.1C8.1,40.2,0,59.6,0,82.2v274.1
		c0,22.6,8,42,24.1,58.1c16.1,16.1,35.5,24.1,58.1,24.1h52.2c-3.2-29.3-2.6-53.5,2-72.5l28-118.2c-4.6-9.3-6.9-20.8-6.9-34.5
		c0-15.8,4-29.1,12.1-39.8c8.1-10.8,17.9-16.1,29.5-16.1c9.3,0,16.5,3.1,21.6,9.3c5,6.2,7.6,13.9,7.6,23.3c0,5.9-1,13-3.1,21.3
		c-2.1,8.3-4.9,18-8.4,29.1c-3.5,11.1-6,19.9-7.6,26.4c-2.7,11.4-0.5,21.3,6.6,29.6c7,8.3,16.3,12.4,27.7,12.4
		c20.2,0,36.7-11.2,49.5-33.7c12.8-22.5,19.3-49.7,19.3-81.6c0-24.6-7.9-44.5-23.8-60c-15.9-15.4-38-23.1-66.4-23.1
		c-31.8,0-57.5,10.1-77.2,30.4c-19.7,20.3-29.6,44.7-29.6,73.2c0,16.7,4.8,31,14.3,42.8c3.2,3.6,4.3,7.6,3.1,12
		c-1,3.2-2.4,9-4.3,17.4c-0.8,2.7-2.1,4.5-4.1,5.4c-2,1-4.2,1-6.7,0c-14.7-6.1-25.7-16.6-33.3-31.4c-7.5-14.8-11.3-32-11.3-51.4
		c0-12.6,2-25.2,6.1-37.8c4.1-12.7,10.4-24.8,19-36.5c8.6-11.7,18.8-22.1,30.7-31.3c11.9-9.1,26.5-16.4,43.7-21.8
		c17.2-5.4,35.7-8.1,55.5-8.1c20.2,0,38.9,3.5,56.3,10.4c17.3,6.9,31.8,16.2,43.5,27.7c11.7,11.5,20.9,24.7,27.5,39.7
		c6.7,14.9,10,30.4,10,46.4c0,43-10.9,78.6-32.7,106.6c-21.8,28.1-49.9,42.1-84.4,42.1c-11.4,0-22.1-2.7-32.1-8
		c-10-5.3-17-11.7-21-19.1c-8.4,33.3-13.4,53.2-15.1,59.7c-4.4,16.8-14.7,36.7-30.8,60h207c22.6,0,42-8,58.1-24.1
		c16.1-16.1,24.1-35.5,24.1-58.1V82.2C438.5,59.6,430.5,40.2,414.4,24.1z"/>
</g>
</svg>
