<?xml version="1.0" encoding="utf-8"?>
<!-- Generator: Adobe Illustrator 22.1.0, SVG Export Plug-In . SVG Version: 6.00 Build 0)  -->
<svg version="1.1" id="Capa_1" xmlns="http://www.w3.org/2000/svg" xmlns:xlink="http://www.w3.org/1999/xlink" x="0px" y="0px"
	 viewBox="0 0 277 277" style="enable-background:new 0 0 277 277;" xml:space="preserve">
<style type="text/css">
	.st0{fill:#FFFFFF;}
</style>
<path class="st0" d="M220.1,272.3c-11.2,0-24.6-2.8-39.4-8.4c-32.5-12.2-67.8-36.4-99.5-68.1s-55.9-67-68.1-99.5
	C1.9,66.8,1.9,42.6,13,31.5c1.6-1.6,3.2-3.3,4.9-5.1C28,15.8,39.4,3.8,54.6,4.3c10.4,0.5,20.6,7,30.9,19.9
	c30.6,38.1,16.8,51.7,0.8,67.4l-2.8,2.8C80.9,97,76,109.1,121.9,155c15,15,27.8,26,38,32.6c6.4,4.2,17.9,10.5,22.7,5.8l2.8-2.9
	c15.7-15.9,29.3-29.7,67.4,0.9c12.9,10.4,19.4,20.5,19.8,30.9c0.6,15.2-11.4,26.6-22.1,36.7c-1.8,1.7-3.5,3.3-5.1,4.9
	C240,269.6,231.2,272.3,220.1,272.3z M53.5,13.3c-10.8,0-20.5,10.2-29.1,19.3c-1.7,1.8-3.4,3.6-5.1,5.2c-8.3,8.3-7.4,30,2.1,55.3
	c11.8,31.3,35.3,65.5,66.1,96.3s65,54.2,96.3,66c25.3,9.6,47,10.4,55.3,2.1c1.6-1.6,3.4-3.3,5.2-5c9.3-8.8,19.8-18.8,19.3-29.8
	c-0.3-7.6-5.9-15.8-16.5-24.3c-31.7-25.5-40.6-16.5-55.3-1.6l-2.9,2.9c-7,7-18.5,5.5-34-4.6c-10.8-7-24-18.4-39.5-33.8
	c-38-38-50.2-61.4-38.2-73.3l2.9-2.8c15-14.7,24-23.6-1.5-55.3C70,19.2,61.8,13.7,54.2,13.4C54,13.3,53.7,13.3,53.5,13.3z"/>
</svg>
