<?xml version="1.0" encoding="utf-8"?>
<!-- Generator: Adobe Illustrator 22.1.0, SVG Export Plug-In . SVG Version: 6.00 Build 0)  -->
<svg version="1.1" id="Capa_1" xmlns="http://www.w3.org/2000/svg" xmlns:xlink="http://www.w3.org/1999/xlink" x="0px" y="0px"
	 viewBox="0 0 563.4 563.4" style="enable-background:new 0 0 563.4 563.4;" xml:space="preserve">
<style type="text/css">
	.st0{fill:#FFFFFF;stroke:#FFFFFF;stroke-miterlimit:10;}
</style>
<g>
	<g>
		<path class="st0" d="M281,253.9c68.1,0,123.3-55.2,123.3-123.3S349.1,7.7,281,7.7S157.7,62.9,157.7,130.6S212.9,253.9,281,253.9z
			 M281,39.8c49.9,0,90.7,40.9,90.7,90.7s-40.9,90.7-90.7,90.7s-90.7-40.9-90.7-90.7S231,39.8,281,39.8z"/>
		<path class="st0" d="M67.7,446.3h428c9.1,0,16.3-7.2,16.3-16.3c0-85.1-69.2-154.6-154.6-154.6H206.1
			C121,275.4,51.4,344.6,51.4,430C51.4,439.1,58.6,446.3,67.7,446.3z M206.1,307.9h151.2c62,0,113,46.1,121,105.8H85.1
			C93.1,354.4,144.1,307.9,206.1,307.9z"/>
	</g>
	<g>
		<path class="st0" d="M116.2,526.3c-2.6-1.4-4.6-4.1-5.9-8c-1.3-3.9-1.9-9.6-1.9-17c0-7.1,0.7-12.5,2-16.4c1.3-3.9,3.4-6.6,6.1-8.1
			c2.7-1.5,6.4-2.3,10.9-2.3c2.2,0,4.7,0.2,7.6,0.5c2.9,0.4,5.4,0.8,7.6,1.4v4.2c-1.7-0.2-3.8-0.5-6.5-0.7c-2.6-0.2-5.3-0.4-7.8-0.4
			c-3.6,0-6.4,0.6-8.4,1.8c-2,1.2-3.5,3.3-4.4,6.4c-0.9,3.1-1.4,7.6-1.4,13.6c0,6.1,0.4,10.8,1.3,13.9c0.9,3.1,2.3,5.2,4.3,6.3
			c2,1.1,4.8,1.7,8.5,1.7c6.1,0,10.9-0.3,14.5-0.9v4.3c-2.2,0.5-4.7,0.9-7.5,1.3c-2.8,0.3-5.5,0.5-8.2,0.5
			C122.4,528.4,118.8,527.7,116.2,526.3z"/>
		<path class="st0" d="M158.1,526.5c-2.9-1.3-5-3.9-6.5-7.7c-1.5-3.8-2.2-9.5-2.2-17c0-7.5,0.8-13.2,2.3-17.1c1.5-3.9,3.7-6.6,6.6-8
			c2.9-1.4,6.7-2.1,11.6-2.1c5,0,8.9,0.7,11.8,2.1s5,4,6.5,7.9c1.4,3.9,2.2,9.6,2.2,17.2c0,7.5-0.7,13.2-2.2,17
			c-1.5,3.8-3.6,6.4-6.5,7.7c-2.9,1.3-6.8,2-11.8,2C164.9,528.4,161,527.8,158.1,526.5z M178.7,521.7c2-1.1,3.5-3.1,4.5-6.2
			c1-3.1,1.4-7.7,1.4-13.8c0-6.4-0.5-11.1-1.4-14.3c-1-3.1-2.5-5.2-4.5-6.2c-2-1-5-1.5-8.8-1.5c-3.6,0-6.5,0.5-8.6,1.5
			c-2.1,1-3.6,3.1-4.6,6.3c-1,3.2-1.5,7.9-1.5,14.2c0,6.2,0.5,10.8,1.4,13.9c0.9,3,2.4,5.1,4.4,6.2c2,1.1,5,1.6,9,1.6
			C173.7,523.3,176.7,522.8,178.7,521.7z"/>
		<path class="st0" d="M201.1,475h4.7l27.6,43.1V475h5.7v53h-4.7l-27.6-43.1V528h-5.7V475z"/>
		<path class="st0" d="M250.3,475h4.7l27.6,43.1V475h5.7v53h-4.7L256,484.9V528h-5.7V475z"/>
		<path class="st0" d="M301.6,526.2c-2.1-1.4-3.1-4.1-3.1-8.2v-32.3c0-3.7,1-6.5,3-8.1c2-1.7,4.5-2.5,7.4-2.5
			c7.7,0.1,13.7,0.3,17.9,0.5l4.2,0.1v4.6h-20.7c-4.1,0-6.1,2.1-6.1,6.3v12.5l23.7,0.4v4.4l-23.7,0.4v12.5c0,2.4,0.6,4.1,1.7,5
			c1.2,0.9,2.7,1.3,4.7,1.3h20.4v4.6c-9.1,0.5-16.4,0.7-21.8,0.7C306.3,528.3,303.7,527.6,301.6,526.2z"/>
		<path class="st0" d="M347.3,526.3c-2.6-1.4-4.6-4.1-5.9-8c-1.3-3.9-1.9-9.6-1.9-17c0-7.1,0.7-12.5,2-16.4c1.3-3.9,3.4-6.6,6.1-8.1
			c2.7-1.5,6.4-2.3,10.9-2.3c2.2,0,4.7,0.2,7.6,0.5c2.9,0.4,5.4,0.8,7.6,1.4v4.2c-1.7-0.2-3.8-0.5-6.5-0.7c-2.6-0.2-5.3-0.4-7.8-0.4
			c-3.6,0-6.4,0.6-8.4,1.8c-2,1.2-3.5,3.3-4.4,6.4c-0.9,3.1-1.4,7.6-1.4,13.6c0,6.1,0.4,10.8,1.3,13.9c0.9,3.1,2.3,5.2,4.3,6.3
			c2,1.1,4.8,1.7,8.5,1.7c6.1,0,10.9-0.3,14.5-0.9v4.3c-2.2,0.5-4.7,0.9-7.5,1.3c-2.8,0.3-5.5,0.5-8.2,0.5
			C353.5,528.4,349.9,527.7,347.3,526.3z"/>
		<path class="st0" d="M394.6,480.2h-16.4V475h38.4v5.2h-16.3V528h-5.7V480.2z"/>
		<path class="st0" d="M425.7,526.2c-2.1-1.4-3.1-4.1-3.1-8.2v-32.3c0-3.7,1-6.5,3-8.1c2-1.7,4.5-2.5,7.4-2.5
			c7.7,0.1,13.7,0.3,17.9,0.5l4.2,0.1v4.6h-20.7c-4.1,0-6.1,2.1-6.1,6.3v12.5l23.7,0.4v4.4l-23.7,0.4v12.5c0,2.4,0.6,4.1,1.7,5
			c1.2,0.9,2.7,1.3,4.7,1.3h20.4v4.6c-9.1,0.5-16.4,0.7-21.8,0.7C430.4,528.3,427.8,527.6,425.7,526.2z M445.6,461.3h4.8l-9,9.8
			h-3.3L445.6,461.3z"/>
	</g>
</g>
</svg>
